<svg width="16" height="19" viewBox="0 0 16 19">
<path d="M13.88 0H1.23997C0.560002 0 0 0.560002 0 1.23997V17.76C0 18.44 0.560002 19 1.23997 19H13.88C14.56 19 15.12 18.44 15.12 17.76V1.23997C15.12 0.560002 14.56 0 13.88 0ZM9.04 3.20008C9.04 3.10005 9.11994 3.00003 9.24006 3.00003H10.1601C10.2602 3.00003 10.3602 3.07997 10.3602 3.20008V6.72006C10.3602 6.82009 10.2803 6.92012 10.1601 6.92012H9.24006C9.14003 6.92012 9.04 6.84018 9.04 6.72006V3.20008ZM6.75999 4.22005C6.75999 4.12002 6.83993 4.01999 6.96005 4.01999H7.88012C7.98015 4.01999 8.08018 4.09993 8.08018 4.22005V6.72006C8.08018 6.82009 8.00024 6.92012 7.88012 6.92012H6.95991C6.85988 6.92012 6.75985 6.84018 6.75985 6.72006L6.75999 4.22005ZM4.47998 5.26009C4.47998 5.16006 4.55992 5.06003 4.68004 5.06003H5.60011C5.70014 5.06003 5.80017 5.13997 5.80017 5.26009V6.72006C5.80017 6.82009 5.72023 6.92012 5.60011 6.92012H4.68004C4.58001 6.92012 4.47998 6.84018 4.47998 6.72006V5.26009ZM11.32 15.8601H3.79998C3.57997 15.8601 3.40001 15.6802 3.40001 15.4602C3.40001 15.2402 3.57998 15.0602 3.79998 15.0602H11.34C11.56 15.0602 11.74 15.2402 11.74 15.4602C11.74 15.6802 11.5401 15.8601 11.32 15.8601H11.32ZM11.32 12.8001H3.79998C3.57997 12.8001 3.40001 12.6202 3.40001 12.4002C3.40001 12.1801 3.57998 12.0002 3.79998 12.0002H11.34C11.56 12.0002 11.74 12.1802 11.74 12.4002C11.74 12.6202 11.5401 12.8001 11.32 12.8001H11.32ZM11.32 9.76022H3.79998C3.57997 9.76022 3.40001 9.58025 3.40001 9.36025C3.40001 9.14024 3.57998 8.96028 3.79998 8.96028H11.34C11.56 8.96028 11.74 9.14025 11.74 9.36025C11.74 9.58011 11.5401 9.76022 11.32 9.76022H11.32Z"/>
</svg>
