<svg width="25" height="25" viewBox="0 0 19 19">
<path fill-rule="evenodd" clip-rule="evenodd" d="M19 9.5C19 14.7465 14.7469 19 9.5 19C4.25311 19 0 14.7469 0 9.5C0 4.25311 4.25311 0 9.5 0C14.7469 0 19 4.25311 19 9.5ZM12.0909 6.04555C12.0909 7.47645 10.9309 8.63642 9.5 8.63642C8.0691 8.63642 6.90913 7.47645 6.90913 6.04555C6.90913 4.61465 8.0691 3.45467 9.5 3.45467C10.9309 3.45467 12.0909 4.61465 12.0909 6.04555ZM7.77263 10.3634C6.34172 10.3634 5.18175 11.5234 5.18175 12.9543C5.18175 14.3854 6.34172 15.5452 7.77263 15.5452H11.2272C12.6581 15.5452 13.8181 14.3854 13.8181 12.9543C13.8181 11.5234 12.6581 10.3634 11.2272 10.3634H7.77263Z"/>
</svg>
