<svg width="19" height="19" viewBox="0 0 19 19">
<path d="M16.7401 1.64007H13.9401V0.859932C13.9401 0.379896 13.5601 3.37192e-06 13.0802 3.37192e-06H12.2002C11.7201 3.37192e-06 11.3402 0.380039 11.3402 0.859932V1.63993L6.98024 1.64007V0.859928C6.98024 0.379893 6.6002 0 6.12031 0H5.24027C4.76024 0 4.38034 0.380036 4.38034 0.859928V1.63993H1.58042C0.720488 1.63993 0.000488281 2.34 0.000488281 3.21986V5.23982H18.3005L18.3003 3.22C18.3203 2.33996 17.6003 1.64007 16.7402 1.64007L16.7401 1.64007Z"/>
<path d="M9.56006 15.2H13.5401V19H9.56006V15.2Z"/>
<path d="M4.78003 15.2H8.76003V19H4.78003V15.2Z" />
<path d="M9.56006 10.5999H13.5401V14.3999H9.56006V10.5999Z"/>
<path d="M0.000107084 17.42C0.000107084 18.28 0.700178 19 1.58004 19H3.98V15.2H0L0.000107084 17.42Z" />
<path d="M14.3201 6.02002H18.3001V9.82002H14.3201V6.02002Z"/>
<path d="M14.3201 18.9999H16.72C17.58 18.9999 18.3 18.2998 18.3 17.42L18.3001 15.2H14.3201L14.3201 18.9999Z"/>
<path d="M14.3201 10.5999H18.3001V14.3999H14.3201V10.5999Z"/>
<path d="M9.56006 6.02002H13.5401V9.82002H9.56006V6.02002Z"/>
<path d="M0 10.5999H3.98V14.3999H0V10.5999Z"/>
<path d="M0 6.02002H3.98V9.82002H0V6.02002Z"/>
<path d="M4.78003 10.5999H8.76003V14.3999H4.78003V10.5999Z"/>
<path d="M4.78003 6.02002H8.76003V9.82002H4.78003V6.02002Z"/>
</svg>
